<?xml version="1.0" encoding="UTF-8" standalone="no"?>
<!-- Created with Inkscape (http://www.inkscape.org/) -->

<svg
   xmlns:dc="http://purl.org/dc/elements/1.1/"
   xmlns:cc="http://creativecommons.org/ns#"
   xmlns:rdf="http://www.w3.org/1999/02/22-rdf-syntax-ns#"
   xmlns:svg="http://www.w3.org/2000/svg"
   xmlns="http://www.w3.org/2000/svg"
   xmlns:sodipodi="http://sodipodi.sourceforge.net/DTD/sodipodi-0.dtd"
   xmlns:inkscape="http://www.inkscape.org/namespaces/inkscape"
   width="210mm"
   height="297mm"
   viewBox="0 0 210 297"
   version="1.1"
   id="svg4549"
   inkscape:version="0.92.3 (2405546, 2018-03-11)"
   sodipodi:docname="placeholder-loading.svg"
   inkscape:export-filename="/work/willuhn/git/jameica/src/img/placeholder-loading.png"
   inkscape:export-xdpi="23.610001"
   inkscape:export-ydpi="23.610001">
  <defs
     id="defs4543" />
  <sodipodi:namedview
     id="base"
     pagecolor="#ffffff"
     bordercolor="#666666"
     borderopacity="1.0"
     inkscape:pageopacity="0.0"
     inkscape:pageshadow="2"
     inkscape:zoom="0.98994949"
     inkscape:cx="25.960629"
     inkscape:cy="603.85622"
     inkscape:document-units="mm"
     inkscape:current-layer="layer1"
     showgrid="false" />
  <metadata
     id="metadata4546">
    <rdf:RDF>
      <cc:Work
         rdf:about="">
        <dc:format>image/svg+xml</dc:format>
        <dc:type
           rdf:resource="http://purl.org/dc/dcmitype/StillImage" />
        <dc:title />
      </cc:Work>
    </rdf:RDF>
  </metadata>
  <g
     inkscape:label="Layer 1"
     inkscape:groupmode="layer"
     id="layer1">
    <path
       id="path2"
       d="m 124.45456,121.99294 c -2.74441,-1.61925 -6.28169,-0.7072 -7.90095,2.03683 -1.61925,2.74441 -0.70719,6.28169 2.03684,7.90094 l 26.78904,15.80731 c 2.74459,1.61944 6.28187,0.70739 7.90131,-2.03683 1.61926,-2.7444 0.7072,-6.28169 -2.03683,-7.90094 z"
       inkscape:connector-curvature="0"
       style="fill:#b3b3b3;stroke-width:0.26458332" />
    <path
       id="path4"
       d="m 63.039708,100.19898 c 2.744401,1.61926 6.281689,0.70719 7.900942,-2.036831 1.619248,-2.74441 0.707191,-6.281696 -2.036834,-7.900943 L 42.114778,74.453891 c -2.744409,-1.619246 -6.281697,-0.707192 -7.900943,2.036835 -1.619253,2.744402 -0.707199,6.281689 2.036835,7.900943 z"
       inkscape:connector-curvature="0"
       style="fill:#ececec;stroke-width:0.26458332" />
    <path
       id="path6"
       d="m 107.12565,133.64744 c -2.78238,1.55284 -3.779,5.0673 -2.22616,7.84968 l 15.15867,27.16116 c 1.55283,2.78238 5.06729,3.779 7.84968,2.22616 2.78238,-1.55283 3.779,-5.06729 2.22617,-7.84968 l -15.15886,-27.16134 c -1.55265,-2.78219 -5.0673,-3.779 -7.8495,-2.22598 z"
       inkscape:connector-curvature="0"
       style="fill:#b3b3b3;stroke-width:0.26458332" />
    <path
       id="path8"
       d="m 80.368606,88.544476 c 2.782382,-1.552836 3.779004,-5.067296 2.22617,-7.849677 L 67.435919,53.533457 c -1.552841,-2.782389 -5.067297,-3.779005 -7.849679,-2.226168 -2.782382,1.552836 -3.779004,5.067296 -2.22617,7.849677 l 15.158857,27.161342 c 1.552841,2.782388 5.067297,3.779005 7.849679,2.226168 z"
       inkscape:connector-curvature="0"
       style="fill:#f9f9f9;stroke-width:0.26458332" />
    <path
       id="path10"
       d="m 93.829079,136.81878 c -3.186308,-0.005 -5.773743,2.57378 -5.778801,5.76009 l -0.04995,31.10517 c -0.005,3.18631 2.573784,5.77374 5.760107,5.77878 3.186308,0.005 5.773744,-2.57378 5.778795,-5.76009 l 0.04994,-31.10516 c 0.0052,-3.18612 -2.573597,-5.77355 -5.760107,-5.77877 z"
       inkscape:connector-curvature="0"
       style="fill:#cccccc;stroke-width:0.26458332" />
    <path
       id="path12"
       d="m 93.71271,84.878854 c 3.186307,0.005 5.773739,-2.573784 5.778774,-5.760107 l 0.04996,-31.105169 c 0.005,-3.186309 -2.573779,-5.773744 -5.760085,-5.778795 -3.186313,-0.0051 -5.773745,2.573776 -5.778774,5.760107 l -0.04996,31.105168 c -0.005,3.18631 2.573779,5.773744 5.760092,5.778802 z"
       inkscape:connector-curvature="0"
       style="fill:#808080;stroke-width:0.26458332" />
    <path
       id="path14"
       d="m 106.91986,88.428112 c 2.76498,1.583701 6.29029,0.625993 7.87381,-2.139175 l 15.45914,-26.991654 c 1.58371,-2.764984 0.62599,-6.2903 -2.13917,-7.873813 -2.76499,-1.583708 -6.2903,-0.626 -7.87382,2.139167 l -15.45895,26.991845 c -1.58389,2.764801 -0.62618,6.29011 2.13899,7.87363 z"
       inkscape:connector-curvature="0"
       style="fill:#808080;stroke-width:0.26458332" />
    <path
       id="path16"
       d="m 80.574407,133.76381 c -2.764985,-1.58371 -6.290294,-0.626 -7.873818,2.13917 l -15.458952,26.99185 c -1.583698,2.76498 -0.625991,6.29029 2.139176,7.87381 2.764984,1.5837 6.290294,0.626 7.873814,-2.13917 l 15.458947,-26.99184 c 1.583521,-2.76518 0.626003,-6.2903 -2.139167,-7.87382 z"
       inkscape:connector-curvature="0"
       style="fill:#cccccc;stroke-width:0.26458332" />
    <path
       id="path18"
       d="m 42.197651,147.80519 26.686895,-15.97943 c 2.733739,-1.63703 3.622968,-5.1803 1.986129,-7.91385 -1.637023,-2.73375 -5.180109,-3.62316 -7.913854,-1.98614 l -26.686882,15.97944 c -2.733746,1.63702 -3.622975,5.18029 -1.986129,7.91384 1.636839,2.73393 5.179918,3.62297 7.913841,1.98614 z"
       inkscape:connector-curvature="0"
       style="fill:#e6e6e6;stroke-width:0.26458332" />
    <path
       id="path20"
       d="m 61.707073,117.00797 c 3.186308,0.0294 5.792824,-2.53001 5.822218,-5.7163 0.02938,-3.1863 -2.529992,-5.79282 -5.716286,-5.82221 l -31.103867,-0.28549 c -3.186308,-0.0294 -5.792831,2.53 -5.822218,5.71629 -0.02937,3.1863 2.530007,5.79282 5.716294,5.82222 z"
       inkscape:connector-curvature="0"
       style="fill:#e6e6e6;stroke-width:0.26458332" />
    <path
       id="path22"
       d="m 125.78719,105.18396 c -3.18631,-0.0294 -5.79283,2.53 -5.8222,5.7163 -0.0294,3.18631 2.53,5.79283 5.7163,5.8222 l 31.10387,0.2855 c 3.18631,0.0294 5.79283,-2.53 5.8222,-5.7163 0.0294,-3.18631 -2.53,-5.79283 -5.7163,-5.82221 z"
       inkscape:connector-curvature="0"
       style="fill:#999999;stroke-width:0.26458332" />
    <path
       id="path24"
       d="m 145.29679,74.386543 -26.68688,15.979434 c -2.73375,1.637022 -3.62316,5.18011 -1.98614,7.913844 1.63703,2.733739 5.18011,3.622789 7.91385,1.986139 l 26.68689,-15.979432 c 2.73393,-1.63684 3.62297,-5.179924 1.98614,-7.913851 -1.63684,-2.733927 -5.1803,-3.622972 -7.91386,-1.986134 z"
       inkscape:connector-curvature="0"
       style="fill:#999999;stroke-width:0.26458332" />
  </g>
</svg>
