<?xml version="1.0" encoding="UTF-8" standalone="no"?>
<!-- Created with Inkscape (http://www.inkscape.org/) -->
<svg
   xmlns:dc="http://purl.org/dc/elements/1.1/"
   xmlns:cc="http://web.resource.org/cc/"
   xmlns:rdf="http://www.w3.org/1999/02/22-rdf-syntax-ns#"
   xmlns:svg="http://www.w3.org/2000/svg"
   xmlns="http://www.w3.org/2000/svg"
   xmlns:sodipodi="http://sodipodi.sourceforge.net/DTD/sodipodi-0.dtd"
   xmlns:inkscape="http://www.inkscape.org/namespaces/inkscape"
   width="744.09448819"
   height="1052.3622047"
   id="svg2"
   sodipodi:version="0.32"
   inkscape:version="0.44.1"
   sodipodi:docbase="/work/willuhn/eclipse3/jameica/design"
   sodipodi:docname="schema.svg">
  <defs
     id="defs4">
    <marker
       inkscape:stockid="TriangleOutL"
       orient="auto"
       refY="0.0"
       refX="0.0"
       id="TriangleOutL"
       style="overflow:visible">
      <path
         id="path2930"
         d="M 5.77,0.0 L -2.88,5.0 L -2.88,-5.0 L 5.77,0.0 z "
         style="fill-rule:evenodd;stroke:#000000;stroke-width:1.0pt;marker-start:none"
         transform="scale(0.8)" />
    </marker>
    <marker
       inkscape:stockid="Arrow2Lend"
       orient="auto"
       refY="0.0"
       refX="0.0"
       id="Arrow2Lend"
       style="overflow:visible;">
      <path
         id="path3007"
         style="font-size:12.0;fill-rule:evenodd;stroke-width:0.62500000;stroke-linejoin:round;"
         d="M 8.7185878,4.0337352 L -2.2072895,0.016013256 L 8.7185884,-4.0017078 C 6.9730900,-1.6296469 6.9831476,1.6157441 8.7185878,4.0337352 z "
         transform="scale(1.1) rotate(180) translate(1,0)" />
    </marker>
    <marker
       inkscape:stockid="Arrow2Lstart"
       orient="auto"
       refY="0.0"
       refX="0.0"
       id="Arrow2Lstart"
       style="overflow:visible">
      <path
         id="path3010"
         style="font-size:12.0;fill-rule:evenodd;stroke-width:0.62500000;stroke-linejoin:round"
         d="M 8.7185878,4.0337352 L -2.2072895,0.016013256 L 8.7185884,-4.0017078 C 6.9730900,-1.6296469 6.9831476,1.6157441 8.7185878,4.0337352 z "
         transform="scale(1.1) translate(1,0)" />
    </marker>
    <marker
       inkscape:stockid="TriangleInL"
       orient="auto"
       refY="0.0"
       refX="0.0"
       id="TriangleInL"
       style="overflow:visible">
      <path
         id="path2939"
         d="M 5.77,0.0 L -2.88,5.0 L -2.88,-5.0 L 5.77,0.0 z "
         style="fill-rule:evenodd;stroke:#000000;stroke-width:1.0pt;marker-start:none"
         transform="scale(-0.8)" />
    </marker>
    <marker
       inkscape:stockid="Arrow1Mend"
       orient="auto"
       refY="0.0"
       refX="0.0"
       id="Arrow1Mend"
       style="overflow:visible;">
      <path
         id="path3019"
         d="M 0.0,0.0 L 5.0,-5.0 L -12.5,0.0 L 5.0,5.0 L 0.0,0.0 z "
         style="fill-rule:evenodd;stroke:#000000;stroke-width:1.0pt;marker-start:none;"
         transform="scale(0.4) rotate(180) translate(10,0)" />
    </marker>
    <marker
       inkscape:stockid="Arrow1Lstart"
       orient="auto"
       refY="0.0"
       refX="0.0"
       id="Arrow1Lstart"
       style="overflow:visible">
      <path
         id="path3028"
         d="M 0.0,0.0 L 5.0,-5.0 L -12.5,0.0 L 5.0,5.0 L 0.0,0.0 z "
         style="fill-rule:evenodd;stroke:#000000;stroke-width:1.0pt;marker-start:none"
         transform="scale(0.8) translate(12.5,0)" />
    </marker>
  </defs>
  <sodipodi:namedview
     id="base"
     pagecolor="#ffffff"
     bordercolor="#666666"
     borderopacity="1.0"
     gridtolerance="10000"
     guidetolerance="10"
     objecttolerance="10"
     inkscape:pageopacity="0.0"
     inkscape:pageshadow="2"
     inkscape:zoom="1.1488185"
     inkscape:cx="422.23038"
     inkscape:cy="410.81634"
     inkscape:document-units="px"
     inkscape:current-layer="layer1"
     inkscape:window-width="1401"
     inkscape:window-height="1003"
     inkscape:window-x="125"
     inkscape:window-y="72" />
  <metadata
     id="metadata7">
    <rdf:RDF>
      <cc:Work
         rdf:about="">
        <dc:format>image/svg+xml</dc:format>
        <dc:type
           rdf:resource="http://purl.org/dc/dcmitype/StillImage" />
      </cc:Work>
    </rdf:RDF>
  </metadata>
  <g
     inkscape:label="Layer 1"
     inkscape:groupmode="layer"
     id="layer1">
    <path
       sodipodi:type="inkscape:offset"
       inkscape:radius="6.770586"
       inkscape:original="M 57.96875 385.46875 C 57.968749 512.08333 57.96875 638.69792 57.96875 765.3125 C 242.625 765.3125 427.28125 765.3125 611.9375 765.3125 C 611.93747 638.69792 611.9375 512.08333 611.9375 385.46875 C 427.28122 385.46875 242.625 385.46875 57.96875 385.46875 z "
       style="opacity:0.59537569;fill:#ccc;fill-opacity:1;stroke:none;stroke-width:2;stroke-linejoin:round;stroke-miterlimit:4;stroke-opacity:1"
       id="path2785"
       d="M 57.96875,378.6875 C 56.169438,378.68484 54.443057,379.39844 53.17075,380.67075 C 51.898442,381.94306 51.184844,383.66944 51.1875,385.46875 C 51.187499,512.08333 51.1875,638.69792 51.1875,765.3125 C 51.184844,767.11181 51.898442,768.83819 53.17075,770.1105 C 54.443057,771.38281 56.169438,772.09641 57.96875,772.09375 C 242.625,772.09375 427.28125,772.09375 611.9375,772.09375 C 613.73681,772.09641 615.46319,771.38281 616.7355,770.1105 C 618.00781,768.83819 618.72141,767.11181 618.71875,765.3125 C 618.71872,638.69792 618.71875,512.08333 618.71875,385.46875 C 618.72141,383.66944 618.00781,381.94306 616.7355,380.67075 C 615.46319,379.39844 613.73681,378.68484 611.9375,378.6875 C 427.28122,378.6875 242.625,378.6875 57.96875,378.6875 z "
       transform="translate(-8.619839e-7,-8.61711)" />
    <text
       xml:space="preserve"
       style="font-size:12px;font-style:normal;font-weight:normal;fill:black;fill-opacity:1;stroke:none;stroke-width:1pt;stroke-linecap:butt;stroke-linejoin:miter;stroke-opacity:1;font-family:Bitstream Vera Sans"
       x="52.318165"
       y="364.22446"
       id="text2787"><tspan
         sodipodi:role="line"
         id="tspan2789"
         x="52.318165"
         y="364.22446">Jameica Framework</tspan></text>
    <path
       transform="matrix(0.980479,0,0,0.320981,5.923355,511.3408)"
       d="M 57.96875,378.6875 C 56.169438,378.68484 54.443057,379.39844 53.17075,380.67075 C 51.898442,381.94306 51.184844,383.66944 51.1875,385.46875 C 51.187499,512.08333 51.1875,638.69792 51.1875,765.3125 C 51.184844,767.11181 51.898442,768.83819 53.17075,770.1105 C 54.443057,771.38281 56.169438,772.09641 57.96875,772.09375 C 242.625,772.09375 427.28125,772.09375 611.9375,772.09375 C 613.73681,772.09641 615.46319,771.38281 616.7355,770.1105 C 618.00781,768.83819 618.72141,767.11181 618.71875,765.3125 C 618.71872,638.69792 618.71875,512.08333 618.71875,385.46875 C 618.72141,383.66944 618.00781,381.94306 616.7355,380.67075 C 615.46319,379.39844 613.73681,378.68484 611.9375,378.6875 C 427.28122,378.6875 242.625,378.6875 57.96875,378.6875 z "
       id="path2791"
       style="opacity:0.59537569;fill:#87aade;fill-opacity:1;stroke:none;stroke-width:2;stroke-linejoin:round;stroke-miterlimit:4;stroke-opacity:1"
       inkscape:original="M 57.96875 385.46875 C 57.968749 512.08333 57.96875 638.69792 57.96875 765.3125 C 242.625 765.3125 427.28125 765.3125 611.9375 765.3125 C 611.93747 638.69792 611.9375 512.08333 611.9375 385.46875 C 427.28122 385.46875 242.625 385.46875 57.96875 385.46875 z "
       inkscape:radius="6.770586"
       sodipodi:type="inkscape:offset" />
    <text
       xml:space="preserve"
       style="font-size:12px;font-style:normal;font-weight:normal;fill:black;fill-opacity:1;stroke:none;stroke-width:1pt;stroke-linecap:butt;stroke-linejoin:miter;stroke-opacity:1;font-family:Bitstream Vera Sans"
       x="61.550777"
       y="646.74249"
       id="text2793"><tspan
         sodipodi:role="line"
         id="tspan2795"
         x="61.550777"
         y="646.74249">Kern-Module</tspan></text>
    <path
       transform="matrix(0.208289,0,0,5.187715e-2,477.5362,620.0177)"
       d="M 57.96875,378.6875 C 56.169438,378.68484 54.443057,379.39844 53.17075,380.67075 C 51.898442,381.94306 51.184844,383.66944 51.1875,385.46875 C 51.187499,512.08333 51.1875,638.69792 51.1875,765.3125 C 51.184844,767.11181 51.898442,768.83819 53.17075,770.1105 C 54.443057,771.38281 56.169438,772.09641 57.96875,772.09375 C 242.625,772.09375 427.28125,772.09375 611.9375,772.09375 C 613.73681,772.09641 615.46319,771.38281 616.7355,770.1105 C 618.00781,768.83819 618.72141,767.11181 618.71875,765.3125 C 618.71872,638.69792 618.71875,512.08333 618.71875,385.46875 C 618.72141,383.66944 618.00781,381.94306 616.7355,380.67075 C 615.46319,379.39844 613.73681,378.68484 611.9375,378.6875 C 427.28122,378.6875 242.625,378.6875 57.96875,378.6875 z "
       id="path2803"
       style="opacity:0.59537569;fill:#5f8dd3;fill-opacity:1;stroke:none;stroke-width:2;stroke-linejoin:round;stroke-miterlimit:4;stroke-opacity:1"
       inkscape:original="M 57.96875 385.46875 C 57.968749 512.08333 57.96875 638.69792 57.96875 765.3125 C 242.625 765.3125 427.28125 765.3125 611.9375 765.3125 C 611.93747 638.69792 611.9375 512.08333 611.9375 385.46875 C 427.28122 385.46875 242.625 385.46875 57.96875 385.46875 z "
       inkscape:radius="6.770586"
       sodipodi:type="inkscape:offset" />
    <text
       id="text2805"
       y="652.89752"
       x="490.55975"
       style="font-size:12px;font-style:normal;font-weight:normal;fill:black;fill-opacity:1;stroke:none;stroke-width:1pt;stroke-linecap:butt;stroke-linejoin:miter;stroke-opacity:1;font-family:Bitstream Vera Sans"
       xml:space="preserve"><tspan
         y="652.89752"
         x="490.55975"
         id="tspan2807"
         sodipodi:role="line">Logging</tspan></text>
    <path
       sodipodi:type="inkscape:offset"
       inkscape:radius="6.770586"
       inkscape:original="M 57.96875 385.46875 C 57.968749 512.08333 57.96875 638.69792 57.96875 765.3125 C 242.625 765.3125 427.28125 765.3125 611.9375 765.3125 C 611.93747 638.69792 611.9375 512.08333 611.9375 385.46875 C 427.28122 385.46875 242.625 385.46875 57.96875 385.46875 z "
       style="opacity:0.59537569;fill:#5f8dd3;fill-opacity:1;stroke:none;stroke-width:2;stroke-linejoin:round;stroke-miterlimit:4;stroke-opacity:1"
       id="path2815"
       d="M 57.96875,378.6875 C 56.169438,378.68484 54.443057,379.39844 53.17075,380.67075 C 51.898442,381.94306 51.184844,383.66944 51.1875,385.46875 C 51.187499,512.08333 51.1875,638.69792 51.1875,765.3125 C 51.184844,767.11181 51.898442,768.83819 53.17075,770.1105 C 54.443057,771.38281 56.169438,772.09641 57.96875,772.09375 C 242.625,772.09375 427.28125,772.09375 611.9375,772.09375 C 613.73681,772.09641 615.46319,771.38281 616.7355,770.1105 C 618.00781,768.83819 618.72141,767.11181 618.71875,765.3125 C 618.71872,638.69792 618.71875,512.08333 618.71875,385.46875 C 618.72141,383.66944 618.00781,381.94306 616.7355,380.67075 C 615.46319,379.39844 613.73681,378.68484 611.9375,378.6875 C 427.28122,378.6875 242.625,378.6875 57.96875,378.6875 z "
       transform="matrix(0.208289,0,0,5.187715e-2,478.1517,643.407)" />
    <text
       xml:space="preserve"
       style="font-size:12px;font-style:normal;font-weight:normal;fill:black;fill-opacity:1;stroke:none;stroke-width:1pt;stroke-linecap:butt;stroke-linejoin:miter;stroke-opacity:1;font-family:Bitstream Vera Sans"
       x="490.55975"
       y="676.90228"
       id="text2811"><tspan
         sodipodi:role="line"
         id="tspan2813"
         x="490.55975"
         y="676.90228">Security-Manager</tspan></text>
    <path
       sodipodi:type="inkscape:offset"
       inkscape:radius="6.770586"
       inkscape:original="M 57.96875 385.46875 C 57.968749 512.08333 57.96875 638.69792 57.96875 765.3125 C 242.625 765.3125 427.28125 765.3125 611.9375 765.3125 C 611.93747 638.69792 611.9375 512.08333 611.9375 385.46875 C 427.28122 385.46875 242.625 385.46875 57.96875 385.46875 z "
       style="opacity:0.59537569;fill:#cdde87;fill-opacity:1;stroke:none;stroke-width:2;stroke-linejoin:round;stroke-miterlimit:4;stroke-opacity:1"
       id="path2823"
       d="M 57.96875,378.6875 C 56.169438,378.68484 54.443057,379.39844 53.17075,380.67075 C 51.898442,381.94306 51.184844,383.66944 51.1875,385.46875 C 51.187499,512.08333 51.1875,638.69792 51.1875,765.3125 C 51.184844,767.11181 51.898442,768.83819 53.17075,770.1105 C 54.443057,771.38281 56.169438,772.09641 57.96875,772.09375 C 242.625,772.09375 427.28125,772.09375 611.9375,772.09375 C 613.73681,772.09641 615.46319,771.38281 616.7355,770.1105 C 618.00781,768.83819 618.72141,767.11181 618.71875,765.3125 C 618.71872,638.69792 618.71875,512.08333 618.71875,385.46875 C 618.72141,383.66944 618.00781,381.94306 616.7355,380.67075 C 615.46319,379.39844 613.73681,378.68484 611.9375,378.6875 C 427.28122,378.6875 242.625,378.6875 57.96875,378.6875 z "
       transform="matrix(0.739678,0,0,0.389572,19.11982,227.7101)" />
    <path
       transform="matrix(0.458293,0,0,8.727911e-2,40.5705,454.168)"
       d="M 57.96875,378.6875 C 56.169438,378.68484 54.443057,379.39844 53.17075,380.67075 C 51.898442,381.94306 51.184844,383.66944 51.1875,385.46875 C 51.187499,512.08333 51.1875,638.69792 51.1875,765.3125 C 51.184844,767.11181 51.898442,768.83819 53.17075,770.1105 C 54.443057,771.38281 56.169438,772.09641 57.96875,772.09375 C 242.625,772.09375 427.28125,772.09375 611.9375,772.09375 C 613.73681,772.09641 615.46319,771.38281 616.7355,770.1105 C 618.00781,768.83819 618.72141,767.11181 618.71875,765.3125 C 618.71872,638.69792 618.71875,512.08333 618.71875,385.46875 C 618.72141,383.66944 618.00781,381.94306 616.7355,380.67075 C 615.46319,379.39844 613.73681,378.68484 611.9375,378.6875 C 427.28122,378.6875 242.625,378.6875 57.96875,378.6875 z "
       id="path2817"
       style="opacity:0.59537569;fill:#5f8dd3;fill-opacity:1;stroke:none;stroke-width:2;stroke-linejoin:round;stroke-miterlimit:4;stroke-opacity:1"
       inkscape:original="M 57.96875 385.46875 C 57.968749 512.08333 57.96875 638.69792 57.96875 765.3125 C 242.625 765.3125 427.28125 765.3125 611.9375 765.3125 C 611.93747 638.69792 611.9375 512.08333 611.9375 385.46875 C 427.28122 385.46875 242.625 385.46875 57.96875 385.46875 z "
       inkscape:radius="6.770586"
       sodipodi:type="inkscape:offset" />
    <text
       id="text2819"
       y="501.06949"
       x="69.25737"
       style="font-size:12px;font-style:normal;font-weight:normal;fill:black;fill-opacity:1;stroke:none;stroke-width:1pt;stroke-linecap:butt;stroke-linejoin:miter;stroke-opacity:1;font-family:Bitstream Vera Sans"
       xml:space="preserve"><tspan
         y="501.06949"
         x="69.25737"
         id="tspan2821"
         sodipodi:role="line">Message-Bus</tspan></text>
    <text
       xml:space="preserve"
       style="font-size:12px;font-style:normal;font-weight:normal;fill:black;fill-opacity:1;stroke:none;stroke-width:1pt;stroke-linecap:butt;stroke-linejoin:miter;stroke-opacity:1;font-family:Bitstream Vera Sans"
       x="64.414001"
       y="389.9425"
       id="text2825"><tspan
         sodipodi:role="line"
         id="tspan2827"
         x="64.414001"
         y="389.9425">Plugin-Container</tspan></text>
    <path
       transform="matrix(0.144577,0,0,0.161673,56.54522,338.3859)"
       d="M 57.96875,378.6875 C 56.169438,378.68484 54.443057,379.39844 53.17075,380.67075 C 51.898442,381.94306 51.184844,383.66944 51.1875,385.46875 C 51.187499,512.08333 51.1875,638.69792 51.1875,765.3125 C 51.184844,767.11181 51.898442,768.83819 53.17075,770.1105 C 54.443057,771.38281 56.169438,772.09641 57.96875,772.09375 C 242.625,772.09375 427.28125,772.09375 611.9375,772.09375 C 613.73681,772.09641 615.46319,771.38281 616.7355,770.1105 C 618.00781,768.83819 618.72141,767.11181 618.71875,765.3125 C 618.71872,638.69792 618.71875,512.08333 618.71875,385.46875 C 618.72141,383.66944 618.00781,381.94306 616.7355,380.67075 C 615.46319,379.39844 613.73681,378.68484 611.9375,378.6875 C 427.28122,378.6875 242.625,378.6875 57.96875,378.6875 z "
       id="path2829"
       style="opacity:0.59537569;fill:#bcd35f;fill-opacity:1;stroke:none;stroke-width:2;stroke-linejoin:round;stroke-miterlimit:4;stroke-opacity:1"
       inkscape:original="M 57.96875 385.46875 C 57.968749 512.08333 57.96875 638.69792 57.96875 765.3125 C 242.625 765.3125 427.28125 765.3125 611.9375 765.3125 C 611.93747 638.69792 611.9375 512.08333 611.9375 385.46875 C 427.28122 385.46875 242.625 385.46875 57.96875 385.46875 z "
       inkscape:radius="6.770586"
       sodipodi:type="inkscape:offset" />
    <text
       xml:space="preserve"
       style="font-size:12px;font-style:normal;font-weight:normal;fill:black;fill-opacity:1;stroke:none;stroke-width:1pt;stroke-linecap:butt;stroke-linejoin:miter;stroke-opacity:1;font-family:Bitstream Vera Sans"
       x="68.766296"
       y="413.44492"
       id="text2831"><tspan
         sodipodi:role="line"
         id="tspan2833"
         x="68.766296"
         y="413.44492">Plugin A</tspan></text>
    <path
       sodipodi:type="inkscape:offset"
       inkscape:radius="6.770586"
       inkscape:original="M 57.96875 385.46875 C 57.968749 512.08333 57.96875 638.69792 57.96875 765.3125 C 242.625 765.3125 427.28125 765.3125 611.9375 765.3125 C 611.93747 638.69792 611.9375 512.08333 611.9375 385.46875 C 427.28122 385.46875 242.625 385.46875 57.96875 385.46875 z "
       style="opacity:0.59537569;fill:#bcd35f;fill-opacity:1;stroke:none;stroke-width:2;stroke-linejoin:round;stroke-miterlimit:4;stroke-opacity:1"
       id="path2835"
       d="M 57.96875,378.6875 C 56.169438,378.68484 54.443057,379.39844 53.17075,380.67075 C 51.898442,381.94306 51.184844,383.66944 51.1875,385.46875 C 51.187499,512.08333 51.1875,638.69792 51.1875,765.3125 C 51.184844,767.11181 51.898442,768.83819 53.17075,770.1105 C 54.443057,771.38281 56.169438,772.09641 57.96875,772.09375 C 242.625,772.09375 427.28125,772.09375 611.9375,772.09375 C 613.73681,772.09641 615.46319,771.38281 616.7355,770.1105 C 618.00781,768.83819 618.72141,767.11181 618.71875,765.3125 C 618.71872,638.69792 618.71875,512.08333 618.71875,385.46875 C 618.72141,383.66944 618.00781,381.94306 616.7355,380.67075 C 615.46319,379.39844 613.73681,378.68484 611.9375,378.6875 C 427.28122,378.6875 242.625,378.6875 57.96875,378.6875 z "
       transform="matrix(0.144577,0,0,0.161673,144.4616,337.5154)" />
    <text
       id="text2837"
       y="412.57446"
       x="156.68271"
       style="font-size:12px;font-style:normal;font-weight:normal;fill:black;fill-opacity:1;stroke:none;stroke-width:1pt;stroke-linecap:butt;stroke-linejoin:miter;stroke-opacity:1;font-family:Bitstream Vera Sans"
       xml:space="preserve"><tspan
         y="412.57446"
         x="156.68271"
         id="tspan2839"
         sodipodi:role="line">Plugin B</tspan></text>
    <path
       transform="matrix(0.144577,0,0,0.161673,232.378,336.6449)"
       d="M 57.96875,378.6875 C 56.169438,378.68484 54.443057,379.39844 53.17075,380.67075 C 51.898442,381.94306 51.184844,383.66944 51.1875,385.46875 C 51.187499,512.08333 51.1875,638.69792 51.1875,765.3125 C 51.184844,767.11181 51.898442,768.83819 53.17075,770.1105 C 54.443057,771.38281 56.169438,772.09641 57.96875,772.09375 C 242.625,772.09375 427.28125,772.09375 611.9375,772.09375 C 613.73681,772.09641 615.46319,771.38281 616.7355,770.1105 C 618.00781,768.83819 618.72141,767.11181 618.71875,765.3125 C 618.71872,638.69792 618.71875,512.08333 618.71875,385.46875 C 618.72141,383.66944 618.00781,381.94306 616.7355,380.67075 C 615.46319,379.39844 613.73681,378.68484 611.9375,378.6875 C 427.28122,378.6875 242.625,378.6875 57.96875,378.6875 z "
       id="path2841"
       style="opacity:0.59537569;fill:#bcd35f;fill-opacity:1;stroke:none;stroke-width:2;stroke-linejoin:round;stroke-miterlimit:4;stroke-opacity:1"
       inkscape:original="M 57.96875 385.46875 C 57.968749 512.08333 57.96875 638.69792 57.96875 765.3125 C 242.625 765.3125 427.28125 765.3125 611.9375 765.3125 C 611.93747 638.69792 611.9375 512.08333 611.9375 385.46875 C 427.28122 385.46875 242.625 385.46875 57.96875 385.46875 z "
       inkscape:radius="6.770586"
       sodipodi:type="inkscape:offset" />
    <text
       xml:space="preserve"
       style="font-size:12px;font-style:normal;font-weight:normal;fill:black;fill-opacity:1;stroke:none;stroke-width:1pt;stroke-linecap:butt;stroke-linejoin:miter;stroke-opacity:1;font-family:Bitstream Vera Sans"
       x="244.59912"
       y="411.70401"
       id="text2843"><tspan
         sodipodi:role="line"
         id="tspan2845"
         x="244.59912"
         y="411.70401">Plugin ...</tspan></text>
    <path
       sodipodi:type="inkscape:offset"
       inkscape:radius="6.770586"
       inkscape:original="M 57.96875 385.46875 C 57.968749 512.08333 57.96875 638.69792 57.96875 765.3125 C 242.625 765.3125 427.28125 765.3125 611.9375 765.3125 C 611.93747 638.69792 611.9375 512.08333 611.9375 385.46875 C 427.28122 385.46875 242.625 385.46875 57.96875 385.46875 z "
       style="opacity:0.59537569;fill:#5f8dd3;fill-opacity:1;stroke:none;stroke-width:2;stroke-linejoin:round;stroke-miterlimit:4;stroke-opacity:1"
       id="path3045"
       d="M 57.96875,378.6875 C 56.169438,378.68484 54.443057,379.39844 53.17075,380.67075 C 51.898442,381.94306 51.184844,383.66944 51.1875,385.46875 C 51.187499,512.08333 51.1875,638.69792 51.1875,765.3125 C 51.184844,767.11181 51.898442,768.83819 53.17075,770.1105 C 54.443057,771.38281 56.169438,772.09641 57.96875,772.09375 C 242.625,772.09375 427.28125,772.09375 611.9375,772.09375 C 613.73681,772.09641 615.46319,771.38281 616.7355,770.1105 C 618.00781,768.83819 618.72141,767.11181 618.71875,765.3125 C 618.71872,638.69792 618.71875,512.08333 618.71875,385.46875 C 618.72141,383.66944 618.00781,381.94306 616.7355,380.67075 C 615.46319,379.39844 613.73681,378.68484 611.9375,378.6875 C 427.28122,378.6875 242.625,378.6875 57.96875,378.6875 z "
       transform="matrix(3.344014e-2,0,0,5.851502e-2,92.78367,442.4287)" />
  </g>
</svg>
