<?xml version="1.0" encoding="UTF-8" standalone="no"?>
<!-- Created with Inkscape (http://www.inkscape.org/) -->
<svg
   xmlns:dc="http://purl.org/dc/elements/1.1/"
   xmlns:cc="http://web.resource.org/cc/"
   xmlns:rdf="http://www.w3.org/1999/02/22-rdf-syntax-ns#"
   xmlns:svg="http://www.w3.org/2000/svg"
   xmlns="http://www.w3.org/2000/svg"
   xmlns:sodipodi="http://sodipodi.sourceforge.net/DTD/sodipodi-0.dtd"
   xmlns:inkscape="http://www.inkscape.org/namespaces/inkscape"
   width="744.09448819"
   height="1052.3622047"
   id="svg2"
   sodipodi:version="0.32"
   inkscape:version="0.44.1"
   sodipodi:docbase="/work/willuhn/eclipse3/jameica/design"
   sodipodi:docname="schema.svg">
  <defs
     id="defs4">
    <marker
       inkscape:stockid="TriangleOutL"
       orient="auto"
       refY="0.0"
       refX="0.0"
       id="TriangleOutL"
       style="overflow:visible">
      <path
         id="path2930"
         d="M 5.77,0.0 L -2.88,5.0 L -2.88,-5.0 L 5.77,0.0 z "
         style="fill-rule:evenodd;stroke:#000000;stroke-width:1.0pt;marker-start:none"
         transform="scale(0.8)" />
    </marker>
    <marker
       inkscape:stockid="Arrow2Lend"
       orient="auto"
       refY="0.0"
       refX="0.0"
       id="Arrow2Lend"
       style="overflow:visible;">
      <path
         id="path3007"
         style="font-size:12.0;fill-rule:evenodd;stroke-width:0.62500000;stroke-linejoin:round;"
         d="M 8.7185878,4.0337352 L -2.2072895,0.016013256 L 8.7185884,-4.0017078 C 6.9730900,-1.6296469 6.9831476,1.6157441 8.7185878,4.0337352 z "
         transform="scale(1.1) rotate(180) translate(1,0)" />
    </marker>
    <marker
       inkscape:stockid="Arrow2Lstart"
       orient="auto"
       refY="0.0"
       refX="0.0"
       id="Arrow2Lstart"
       style="overflow:visible">
      <path
         id="path3010"
         style="font-size:12.0;fill-rule:evenodd;stroke-width:0.62500000;stroke-linejoin:round"
         d="M 8.7185878,4.0337352 L -2.2072895,0.016013256 L 8.7185884,-4.0017078 C 6.9730900,-1.6296469 6.9831476,1.6157441 8.7185878,4.0337352 z "
         transform="scale(1.1) translate(1,0)" />
    </marker>
    <marker
       inkscape:stockid="TriangleInL"
       orient="auto"
       refY="0.0"
       refX="0.0"
       id="TriangleInL"
       style="overflow:visible">
      <path
         id="path2939"
         d="M 5.77,0.0 L -2.88,5.0 L -2.88,-5.0 L 5.77,0.0 z "
         style="fill-rule:evenodd;stroke:#000000;stroke-width:1.0pt;marker-start:none"
         transform="scale(-0.8)" />
    </marker>
    <marker
       inkscape:stockid="Arrow1Mend"
       orient="auto"
       refY="0.0"
       refX="0.0"
       id="Arrow1Mend"
       style="overflow:visible;">
      <path
         id="path3019"
         d="M 0.0,0.0 L 5.0,-5.0 L -12.5,0.0 L 5.0,5.0 L 0.0,0.0 z "
         style="fill-rule:evenodd;stroke:#000000;stroke-width:1.0pt;marker-start:none;"
         transform="scale(0.4) rotate(180) translate(10,0)" />
    </marker>
    <marker
       inkscape:stockid="Arrow1Lstart"
       orient="auto"
       refY="0.0"
       refX="0.0"
       id="Arrow1Lstart"
       style="overflow:visible">
      <path
         id="path3028"
         d="M 0.0,0.0 L 5.0,-5.0 L -12.5,0.0 L 5.0,5.0 L 0.0,0.0 z "
         style="fill-rule:evenodd;stroke:#000000;stroke-width:1.0pt;marker-start:none"
         transform="scale(0.8) translate(12.5,0)" />
    </marker>
  </defs>
  <sodipodi:namedview
     id="base"
     pagecolor="#ffffff"
     bordercolor="#666666"
     borderopacity="1.0"
     gridtolerance="10000"
     guidetolerance="10"
     objecttolerance="10"
     inkscape:pageopacity="0.0"
     inkscape:pageshadow="2"
     inkscape:zoom="1.966357"
     inkscape:cx="334.95312"
     inkscape:cy="493.07022"
     inkscape:document-units="px"
     inkscape:current-layer="layer1"
     inkscape:window-width="1401"
     inkscape:window-height="1003"
     inkscape:window-x="125"
     inkscape:window-y="72" />
  <metadata
     id="metadata7">
    <rdf:RDF>
      <cc:Work
         rdf:about="">
        <dc:format>image/svg+xml</dc:format>
        <dc:type
           rdf:resource="http://purl.org/dc/dcmitype/StillImage" />
      </cc:Work>
    </rdf:RDF>
  </metadata>
  <g
     inkscape:label="Layer 1"
     inkscape:groupmode="layer"
     id="layer1">
    <path
       sodipodi:type="inkscape:offset"
       inkscape:radius="6.770586"
       inkscape:original="M 57.96875 385.46875 C 57.968749 512.08333 57.96875 638.69792 57.96875 765.3125 C 242.625 765.3125 427.28125 765.3125 611.9375 765.3125 C 611.93747 638.69792 611.9375 512.08333 611.9375 385.46875 C 427.28122 385.46875 242.625 385.46875 57.96875 385.46875 z "
       style="opacity:0.59537569;fill:#f2f2f2;fill-opacity:1;stroke:none;stroke-width:2;stroke-linejoin:round;stroke-miterlimit:4;stroke-opacity:1"
       id="path2785"
       d="M 57.96875,378.6875 C 56.169438,378.68484 54.443057,379.39844 53.17075,380.67075 C 51.898442,381.94306 51.184844,383.66944 51.1875,385.46875 C 51.187499,512.08333 51.1875,638.69792 51.1875,765.3125 C 51.184844,767.11181 51.898442,768.83819 53.17075,770.1105 C 54.443057,771.38281 56.169438,772.09641 57.96875,772.09375 C 242.625,772.09375 427.28125,772.09375 611.9375,772.09375 C 613.73681,772.09641 615.46319,771.38281 616.7355,770.1105 C 618.00781,768.83819 618.72141,767.11181 618.71875,765.3125 C 618.71872,638.69792 618.71875,512.08333 618.71875,385.46875 C 618.72141,383.66944 618.00781,381.94306 616.7355,380.67075 C 615.46319,379.39844 613.73681,378.68484 611.9375,378.6875 C 427.28122,378.6875 242.625,378.6875 57.96875,378.6875 z "
       transform="matrix(0.996416,0,0,0.758266,0.183472,178.0243)" />
    <text
       xml:space="preserve"
       style="font-size:12px;font-style:normal;font-weight:normal;fill:black;fill-opacity:1;stroke:none;stroke-width:1pt;stroke-linecap:butt;stroke-linejoin:miter;stroke-opacity:1;font-family:Bitstream Vera Sans"
       x="53.335274"
       y="461.86697"
       id="text2787"><tspan
         sodipodi:role="line"
         id="tspan2789"
         x="53.335274"
         y="461.86697">Jameica Framework</tspan></text>
    <path
       transform="matrix(0.980479,0,0,0.320981,5.4148,511.3408)"
       d="M 57.96875,378.6875 C 56.169438,378.68484 54.443057,379.39844 53.17075,380.67075 C 51.898442,381.94306 51.184844,383.66944 51.1875,385.46875 C 51.187499,512.08333 51.1875,638.69792 51.1875,765.3125 C 51.184844,767.11181 51.898442,768.83819 53.17075,770.1105 C 54.443057,771.38281 56.169438,772.09641 57.96875,772.09375 C 242.625,772.09375 427.28125,772.09375 611.9375,772.09375 C 613.73681,772.09641 615.46319,771.38281 616.7355,770.1105 C 618.00781,768.83819 618.72141,767.11181 618.71875,765.3125 C 618.71872,638.69792 618.71875,512.08333 618.71875,385.46875 C 618.72141,383.66944 618.00781,381.94306 616.7355,380.67075 C 615.46319,379.39844 613.73681,378.68484 611.9375,378.6875 C 427.28122,378.6875 242.625,378.6875 57.96875,378.6875 z "
       id="path2791"
       style="opacity:0.59537569;fill:#87aade;fill-opacity:1;stroke:none;stroke-width:2;stroke-linejoin:round;stroke-miterlimit:4;stroke-opacity:1"
       inkscape:original="M 57.96875 385.46875 C 57.968749 512.08333 57.96875 638.69792 57.96875 765.3125 C 242.625 765.3125 427.28125 765.3125 611.9375 765.3125 C 611.93747 638.69792 611.9375 512.08333 611.9375 385.46875 C 427.28122 385.46875 242.625 385.46875 57.96875 385.46875 z "
       inkscape:radius="6.770586"
       sodipodi:type="inkscape:offset" />
    <text
       xml:space="preserve"
       style="font-size:12px;font-style:normal;font-weight:normal;fill:black;fill-opacity:1;stroke:none;stroke-width:1pt;stroke-linecap:butt;stroke-linejoin:miter;stroke-opacity:1;font-family:Bitstream Vera Sans"
       x="61.550777"
       y="646.74249"
       id="text2793"><tspan
         sodipodi:role="line"
         id="tspan2795"
         x="61.550777"
         y="646.74249">Kern-Module</tspan></text>
    <path
       transform="matrix(0.208289,0,0,5.187715e-2,477.5362,620.0177)"
       d="M 57.96875,378.6875 C 56.169438,378.68484 54.443057,379.39844 53.17075,380.67075 C 51.898442,381.94306 51.184844,383.66944 51.1875,385.46875 C 51.187499,512.08333 51.1875,638.69792 51.1875,765.3125 C 51.184844,767.11181 51.898442,768.83819 53.17075,770.1105 C 54.443057,771.38281 56.169438,772.09641 57.96875,772.09375 C 242.625,772.09375 427.28125,772.09375 611.9375,772.09375 C 613.73681,772.09641 615.46319,771.38281 616.7355,770.1105 C 618.00781,768.83819 618.72141,767.11181 618.71875,765.3125 C 618.71872,638.69792 618.71875,512.08333 618.71875,385.46875 C 618.72141,383.66944 618.00781,381.94306 616.7355,380.67075 C 615.46319,379.39844 613.73681,378.68484 611.9375,378.6875 C 427.28122,378.6875 242.625,378.6875 57.96875,378.6875 z "
       id="path2803"
       style="opacity:0.59537569;fill:#5f8dd3;fill-opacity:1;stroke:none;stroke-width:2;stroke-linejoin:round;stroke-miterlimit:4;stroke-opacity:1"
       inkscape:original="M 57.96875 385.46875 C 57.968749 512.08333 57.96875 638.69792 57.96875 765.3125 C 242.625 765.3125 427.28125 765.3125 611.9375 765.3125 C 611.93747 638.69792 611.9375 512.08333 611.9375 385.46875 C 427.28122 385.46875 242.625 385.46875 57.96875 385.46875 z "
       inkscape:radius="6.770586"
       sodipodi:type="inkscape:offset" />
    <text
       id="text2805"
       y="652.89752"
       x="490.55975"
       style="font-size:12px;font-style:normal;font-weight:normal;fill:black;fill-opacity:1;stroke:none;stroke-width:1pt;stroke-linecap:butt;stroke-linejoin:miter;stroke-opacity:1;font-family:Bitstream Vera Sans"
       xml:space="preserve"><tspan
         y="652.89752"
         x="490.55975"
         id="tspan2807"
         sodipodi:role="line">Logging</tspan></text>
    <path
       sodipodi:type="inkscape:offset"
       inkscape:radius="6.770586"
       inkscape:original="M 57.96875 385.46875 C 57.968749 512.08333 57.96875 638.69792 57.96875 765.3125 C 242.625 765.3125 427.28125 765.3125 611.9375 765.3125 C 611.93747 638.69792 611.9375 512.08333 611.9375 385.46875 C 427.28122 385.46875 242.625 385.46875 57.96875 385.46875 z "
       style="opacity:0.59537569;fill:#5f8dd3;fill-opacity:1;stroke:none;stroke-width:2;stroke-linejoin:round;stroke-miterlimit:4;stroke-opacity:1"
       id="path2815"
       d="M 57.96875,378.6875 C 56.169438,378.68484 54.443057,379.39844 53.17075,380.67075 C 51.898442,381.94306 51.184844,383.66944 51.1875,385.46875 C 51.187499,512.08333 51.1875,638.69792 51.1875,765.3125 C 51.184844,767.11181 51.898442,768.83819 53.17075,770.1105 C 54.443057,771.38281 56.169438,772.09641 57.96875,772.09375 C 242.625,772.09375 427.28125,772.09375 611.9375,772.09375 C 613.73681,772.09641 615.46319,771.38281 616.7355,770.1105 C 618.00781,768.83819 618.72141,767.11181 618.71875,765.3125 C 618.71872,638.69792 618.71875,512.08333 618.71875,385.46875 C 618.72141,383.66944 618.00781,381.94306 616.7355,380.67075 C 615.46319,379.39844 613.73681,378.68484 611.9375,378.6875 C 427.28122,378.6875 242.625,378.6875 57.96875,378.6875 z "
       transform="matrix(0.208289,0,0,5.187715e-2,478.1517,643.407)" />
    <text
       xml:space="preserve"
       style="font-size:12px;font-style:normal;font-weight:normal;fill:black;fill-opacity:1;stroke:none;stroke-width:1pt;stroke-linecap:butt;stroke-linejoin:miter;stroke-opacity:1;font-family:Bitstream Vera Sans"
       x="490.55975"
       y="676.90228"
       id="text2811"><tspan
         sodipodi:role="line"
         id="tspan2813"
         x="490.55975"
         y="676.90228">Security-Manager</tspan></text>
    <path
       sodipodi:type="inkscape:offset"
       inkscape:radius="6.770586"
       inkscape:original="M 57.96875 385.46875 C 57.968749 512.08333 57.96875 638.69792 57.96875 765.3125 C 242.625 765.3125 427.28125 765.3125 611.9375 765.3125 C 611.93747 638.69792 611.9375 512.08333 611.9375 385.46875 C 427.28122 385.46875 242.625 385.46875 57.96875 385.46875 z "
       style="opacity:0.59537569;fill:#cdde87;fill-opacity:1;stroke:none;stroke-width:2;stroke-linejoin:round;stroke-miterlimit:4;stroke-opacity:1"
       id="path2823"
       d="M 57.96875,378.6875 C 56.169438,378.68484 54.443057,379.39844 53.17075,380.67075 C 51.898442,381.94306 51.184844,383.66944 51.1875,385.46875 C 51.187499,512.08333 51.1875,638.69792 51.1875,765.3125 C 51.184844,767.11181 51.898442,768.83819 53.17075,770.1105 C 54.443057,771.38281 56.169438,772.09641 57.96875,772.09375 C 242.625,772.09375 427.28125,772.09375 611.9375,772.09375 C 613.73681,772.09641 615.46319,771.38281 616.7355,770.1105 C 618.00781,768.83819 618.72141,767.11181 618.71875,765.3125 C 618.71872,638.69792 618.71875,512.08333 618.71875,385.46875 C 618.72141,383.66944 618.00781,381.94306 616.7355,380.67075 C 615.46319,379.39844 613.73681,378.68484 611.9375,378.6875 C 427.28122,378.6875 242.625,378.6875 57.96875,378.6875 z "
       transform="matrix(0.469957,0,0,0.202131,135.6542,434.4758)" />
    <text
       xml:space="preserve"
       style="font-size:12px;font-style:normal;font-weight:normal;fill:black;fill-opacity:1;stroke:none;stroke-width:1pt;stroke-linecap:butt;stroke-linejoin:miter;stroke-opacity:1;font-family:Bitstream Vera Sans"
       x="165.10783"
       y="525.21802"
       id="text2825"><tspan
         sodipodi:role="line"
         id="tspan2827"
         x="165.10783"
         y="525.21802">Plugin-Loader</tspan></text>
    <path
       transform="matrix(0.984308,0,0,5.735008e-2,6.597803,540.1583)"
       d="M 57.96875,378.6875 C 56.169438,378.68484 54.443057,379.39844 53.17075,380.67075 C 51.898442,381.94306 51.184844,383.66944 51.1875,385.46875 C 51.187499,512.08333 51.1875,638.69792 51.1875,765.3125 C 51.184844,767.11181 51.898442,768.83819 53.17075,770.1105 C 54.443057,771.38281 56.169438,772.09641 57.96875,772.09375 C 242.625,772.09375 427.28125,772.09375 611.9375,772.09375 C 613.73681,772.09641 615.46319,771.38281 616.7355,770.1105 C 618.00781,768.83819 618.72141,767.11181 618.71875,765.3125 C 618.71872,638.69792 618.71875,512.08333 618.71875,385.46875 C 618.72141,383.66944 618.00781,381.94306 616.7355,380.67075 C 615.46319,379.39844 613.73681,378.68484 611.9375,378.6875 C 427.28122,378.6875 242.625,378.6875 57.96875,378.6875 z "
       id="path1917"
       style="opacity:0.59537569;fill:#ffb380;fill-opacity:1;stroke:none;stroke-width:2;stroke-linejoin:round;stroke-miterlimit:4;stroke-opacity:1"
       inkscape:original="M 57.96875 385.46875 C 57.968749 512.08333 57.96875 638.69792 57.96875 765.3125 C 242.625 765.3125 427.28125 765.3125 611.9375 765.3125 C 611.93747 638.69792 611.9375 512.08333 611.9375 385.46875 C 427.28122 385.46875 242.625 385.46875 57.96875 385.46875 z "
       inkscape:radius="6.770586"
       sodipodi:type="inkscape:offset" />
    <text
       id="text1919"
       y="577.09064"
       x="60.854118"
       style="font-size:12px;font-style:normal;font-weight:normal;fill:black;fill-opacity:1;stroke:none;stroke-width:1pt;stroke-linecap:butt;stroke-linejoin:miter;stroke-opacity:1;font-family:Bitstream Vera Sans"
       xml:space="preserve"><tspan
         y="577.09064"
         x="60.854118"
         id="tspan1921"
         sodipodi:role="line">Service-Factory</tspan></text>
    <path
       sodipodi:type="inkscape:offset"
       inkscape:radius="6.770586"
       inkscape:original="M 57.96875 385.46875 C 57.968749 512.08333 57.96875 638.69792 57.96875 765.3125 C 242.625 765.3125 427.28125 765.3125 611.9375 765.3125 C 611.93747 638.69792 611.9375 512.08333 611.9375 385.46875 C 427.28122 385.46875 242.625 385.46875 57.96875 385.46875 z "
       style="opacity:0.59537569;fill:#fea;fill-opacity:1;stroke:none;stroke-width:2;stroke-linejoin:round;stroke-miterlimit:4;stroke-opacity:1"
       id="path1923"
       d="M 57.96875,378.6875 C 56.169438,378.68484 54.443057,379.39844 53.17075,380.67075 C 51.898442,381.94306 51.184844,383.66944 51.1875,385.46875 C 51.187499,512.08333 51.1875,638.69792 51.1875,765.3125 C 51.184844,767.11181 51.898442,768.83819 53.17075,770.1105 C 54.443057,771.38281 56.169438,772.09641 57.96875,772.09375 C 242.625,772.09375 427.28125,772.09375 611.9375,772.09375 C 613.73681,772.09641 615.46319,771.38281 616.7355,770.1105 C 618.00781,768.83819 618.72141,767.11181 618.71875,765.3125 C 618.71872,638.69792 618.71875,512.08333 618.71875,385.46875 C 618.72141,383.66944 618.00781,381.94306 616.7355,380.67075 C 615.46319,379.39844 613.73681,378.68484 611.9375,378.6875 C 427.28122,378.6875 242.625,378.6875 57.96875,378.6875 z "
       transform="matrix(0.641108,0,0,5.476438e-2,25.69098,515.7096)" />
    <path
       transform="matrix(0.144887,0,0,6.904574e-2,333.6037,534.0778)"
       d="M 57.96875,378.6875 C 56.169438,378.68484 54.443057,379.39844 53.17075,380.67075 C 51.898442,381.94306 51.184844,383.66944 51.1875,385.46875 C 51.187499,512.08333 51.1875,638.69792 51.1875,765.3125 C 51.184844,767.11181 51.898442,768.83819 53.17075,770.1105 C 54.443057,771.38281 56.169438,772.09641 57.96875,772.09375 C 242.625,772.09375 427.28125,772.09375 611.9375,772.09375 C 613.73681,772.09641 615.46319,771.38281 616.7355,770.1105 C 618.00781,768.83819 618.72141,767.11181 618.71875,765.3125 C 618.71872,638.69792 618.71875,512.08333 618.71875,385.46875 C 618.72141,383.66944 618.00781,381.94306 616.7355,380.67075 C 615.46319,379.39844 613.73681,378.68484 611.9375,378.6875 C 427.28122,378.6875 242.625,378.6875 57.96875,378.6875 z "
       id="path1948"
       style="opacity:0.59537569;fill:white;fill-opacity:1;stroke:black;stroke-width:2;stroke-linejoin:round;stroke-miterlimit:4;stroke-opacity:1"
       inkscape:original="M 57.96875 385.46875 C 57.968749 512.08333 57.96875 638.69792 57.96875 765.3125 C 242.625 765.3125 427.28125 765.3125 611.9375 765.3125 C 611.93747 638.69792 611.9375 512.08333 611.9375 385.46875 C 427.28122 385.46875 242.625 385.46875 57.96875 385.46875 z "
       inkscape:radius="6.770586"
       sodipodi:type="inkscape:offset" />
    <path
       sodipodi:type="inkscape:offset"
       inkscape:radius="6.770586"
       inkscape:original="M 57.96875 385.46875 C 57.968749 512.08333 57.96875 638.69792 57.96875 765.3125 C 242.625 765.3125 427.28125 765.3125 611.9375 765.3125 C 611.93747 638.69792 611.9375 512.08333 611.9375 385.46875 C 427.28122 385.46875 242.625 385.46875 57.96875 385.46875 z "
       style="opacity:0.59537569;fill:white;fill-opacity:1;stroke:black;stroke-width:2;stroke-linejoin:round;stroke-miterlimit:4;stroke-opacity:1"
       id="path1946"
       d="M 57.96875,378.6875 C 56.169438,378.68484 54.443057,379.39844 53.17075,380.67075 C 51.898442,381.94306 51.184844,383.66944 51.1875,385.46875 C 51.187499,512.08333 51.1875,638.69792 51.1875,765.3125 C 51.184844,767.11181 51.898442,768.83819 53.17075,770.1105 C 54.443057,771.38281 56.169438,772.09641 57.96875,772.09375 C 242.625,772.09375 427.28125,772.09375 611.9375,772.09375 C 613.73681,772.09641 615.46319,771.38281 616.7355,770.1105 C 618.00781,768.83819 618.72141,767.11181 618.71875,765.3125 C 618.71872,638.69792 618.71875,512.08333 618.71875,385.46875 C 618.72141,383.66944 618.00781,381.94306 616.7355,380.67075 C 615.46319,379.39844 613.73681,378.68484 611.9375,378.6875 C 427.28122,378.6875 242.625,378.6875 57.96875,378.6875 z "
       transform="matrix(0.144734,0,0,0.142507,245.1667,477.3146)" />
    <path
       transform="matrix(0.144736,0,0,0.141218,156.6774,478.3108)"
       d="M 57.96875,378.6875 C 56.169438,378.68484 54.443057,379.39844 53.17075,380.67075 C 51.898442,381.94306 51.184844,383.66944 51.1875,385.46875 C 51.187499,512.08333 51.1875,638.69792 51.1875,765.3125 C 51.184844,767.11181 51.898442,768.83819 53.17075,770.1105 C 54.443057,771.38281 56.169438,772.09641 57.96875,772.09375 C 242.625,772.09375 427.28125,772.09375 611.9375,772.09375 C 613.73681,772.09641 615.46319,771.38281 616.7355,770.1105 C 618.00781,768.83819 618.72141,767.11181 618.71875,765.3125 C 618.71872,638.69792 618.71875,512.08333 618.71875,385.46875 C 618.72141,383.66944 618.00781,381.94306 616.7355,380.67075 C 615.46319,379.39844 613.73681,378.68484 611.9375,378.6875 C 427.28122,378.6875 242.625,378.6875 57.96875,378.6875 z "
       id="path2829"
       style="opacity:0.59537569;fill:white;fill-opacity:1;stroke:black;stroke-width:2;stroke-linejoin:round;stroke-miterlimit:4;stroke-opacity:1"
       inkscape:original="M 57.96875 385.46875 C 57.968749 512.08333 57.96875 638.69792 57.96875 765.3125 C 242.625 765.3125 427.28125 765.3125 611.9375 765.3125 C 611.93747 638.69792 611.9375 512.08333 611.9375 385.46875 C 427.28122 385.46875 242.625 385.46875 57.96875 385.46875 z "
       inkscape:radius="6.770586"
       sodipodi:type="inkscape:offset" />
    <text
       id="text1925"
       y="552.89819"
       x="62.997814"
       style="font-size:12px;font-style:normal;font-weight:normal;fill:black;fill-opacity:1;stroke:none;stroke-width:1pt;stroke-linecap:butt;stroke-linejoin:miter;stroke-opacity:1;font-family:Bitstream Vera Sans"
       xml:space="preserve"><tspan
         y="552.89819"
         x="62.997814"
         id="tspan1927"
         sodipodi:role="line">SWT-GUI</tspan></text>
    <path
       style="opacity:0.59537569;fill:#5f8dd3;fill-opacity:1;stroke:none;stroke-width:2;stroke-linejoin:round;stroke-miterlimit:4;stroke-opacity:1"
       d="M 196.9375,587.46875 C 196.89969,587.46859 196.87048,587.50021 196.84375,587.5625 C 196.81702,587.62481 196.78119,587.69316 196.78125,587.78125 C 196.78126,593.97972 196.78125,600.17652 196.78125,606.375 C 196.78121,606.4527 106.51144,606.59375 61.34375,606.59375 C 60.309531,606.59359 59.325054,606.6511 58.59375,606.71875 C 57.862447,606.78642 57.435974,606.87308 57.4375,606.96875 C 57.437499,613.70083 57.4375,620.42417 57.4375,627.15625 C 57.435973,627.25193 57.862446,627.3386 58.59375,627.40625 C 59.325056,627.47389 60.309531,627.53139 61.34375,627.53125 C 167.48158,627.53122 273.61217,627.53125 379.75,627.53125 C 380.78422,627.53136 381.79995,627.4739 382.53125,627.40625 C 383.26257,627.33859 383.65778,627.25192 383.65625,627.15625 C 383.65623,620.42418 383.59375,594.16723 383.59375,587.96875 C 383.59381,587.88064 383.55798,587.81229 383.53125,587.75 C 383.50452,587.68772 383.4753,587.65612 383.4375,587.65625 C 379.55832,587.65628 375.69168,587.65625 371.8125,587.65625 C 371.77471,587.65615 371.71423,587.68771 371.6875,587.75 C 371.66078,587.8123 371.65619,587.88066 371.65625,587.96875 C 371.65625,594.16721 371.65625,600.36402 371.65625,606.5625 C 371.65624,606.57334 371.65581,606.58305 371.65625,606.59375 C 346.55151,606.59375 296.4063,606.45272 296.40625,606.375 C 296.40624,600.17649 296.40625,593.97973 296.40625,587.78125 C 296.40629,587.69315 296.37048,587.62479 296.34375,587.5625 C 296.31703,587.50023 296.2878,587.46862 296.25,587.46875 C 292.37084,587.46872 288.50418,587.46875 284.625,587.46875 C 284.58719,587.46859 284.52673,587.50021 284.5,587.5625 C 284.47327,587.62481 284.46869,587.69316 284.46875,587.78125 C 284.46874,593.97972 284.46875,600.17652 284.46875,606.375 C 284.46869,606.45222 208.7188,606.45224 208.71875,606.375 C 208.71875,600.17649 208.71875,593.97973 208.71875,587.78125 C 208.71881,587.69315 208.71423,587.62479 208.6875,587.5625 C 208.66077,587.50023 208.6003,587.46862 208.5625,587.46875 C 204.68332,587.46872 200.81668,587.46875 196.9375,587.46875 z "
       id="path1934"
       sodipodi:nodetypes="csssssccsccscssssssscssssssssssssc" />
    <text
       xml:space="preserve"
       style="font-size:12px;font-style:normal;font-weight:normal;fill:black;fill-opacity:1;stroke:none;stroke-width:1pt;stroke-linecap:butt;stroke-linejoin:miter;stroke-opacity:1;font-family:Bitstream Vera Sans"
       x="60.009449"
       y="620.5993"
       id="text1936"><tspan
         sodipodi:role="line"
         id="tspan1938"
         x="60.009449"
         y="620.5993">Messaging-Factory</tspan></text>
    <text
       id="text1960"
       y="576.98419"
       x="468.36322"
       style="font-size:12px;font-style:normal;font-weight:normal;fill:black;fill-opacity:1;stroke:none;stroke-width:1pt;stroke-linecap:butt;stroke-linejoin:miter;stroke-opacity:1;font-family:Bitstream Vera Sans"
       xml:space="preserve"><tspan
         y="576.98419"
         x="468.36322"
         id="tspan1962"
         sodipodi:role="line">RMI / XML-RPC over SSL</tspan></text>
    <text
       xml:space="preserve"
       style="font-size:12px;font-style:normal;font-weight:normal;fill:black;fill-opacity:1;stroke:none;stroke-width:1pt;stroke-linecap:butt;stroke-linejoin:miter;stroke-opacity:1;font-family:Bitstream Vera Sans"
       x="166.4088"
       y="544.14349"
       id="text2831"><tspan
         sodipodi:role="line"
         id="tspan2833"
         x="166.4088"
         y="544.14349">Plugin A</tspan></text>
    <text
       id="text2837"
       y="543.27301"
       x="254.3252"
       style="font-size:12px;font-style:normal;font-weight:normal;fill:black;fill-opacity:1;stroke:none;stroke-width:1pt;stroke-linecap:butt;stroke-linejoin:miter;stroke-opacity:1;font-family:Bitstream Vera Sans"
       xml:space="preserve"><tspan
         y="543.27301"
         x="254.3252"
         id="tspan2839"
         sodipodi:role="line">Plugin B</tspan></text>
    <text
       xml:space="preserve"
       style="font-size:12px;font-style:normal;font-weight:normal;fill:black;fill-opacity:1;stroke:none;stroke-width:1pt;stroke-linecap:butt;stroke-linejoin:miter;stroke-opacity:1;font-family:Bitstream Vera Sans"
       x="344.78445"
       y="575.45856"
       id="text2843"><tspan
         sodipodi:role="line"
         id="tspan2845"
         x="344.78445"
         y="575.45856">Plugin ...</tspan></text>
    <path
       transform="matrix(0.208289,0,0,5.187715e-2,478.1517,666.0377)"
       d="M 57.96875,378.6875 C 56.169438,378.68484 54.443057,379.39844 53.17075,380.67075 C 51.898442,381.94306 51.184844,383.66944 51.1875,385.46875 C 51.187499,512.08333 51.1875,638.69792 51.1875,765.3125 C 51.184844,767.11181 51.898442,768.83819 53.17075,770.1105 C 54.443057,771.38281 56.169438,772.09641 57.96875,772.09375 C 242.625,772.09375 427.28125,772.09375 611.9375,772.09375 C 613.73681,772.09641 615.46319,771.38281 616.7355,770.1105 C 618.00781,768.83819 618.72141,767.11181 618.71875,765.3125 C 618.71872,638.69792 618.71875,512.08333 618.71875,385.46875 C 618.72141,383.66944 618.00781,381.94306 616.7355,380.67075 C 615.46319,379.39844 613.73681,378.68484 611.9375,378.6875 C 427.28122,378.6875 242.625,378.6875 57.96875,378.6875 z "
       id="path1984"
       style="opacity:0.59537569;fill:#5f8dd3;fill-opacity:1;stroke:none;stroke-width:2;stroke-linejoin:round;stroke-miterlimit:4;stroke-opacity:1"
       inkscape:original="M 57.96875 385.46875 C 57.968749 512.08333 57.96875 638.69792 57.96875 765.3125 C 242.625 765.3125 427.28125 765.3125 611.9375 765.3125 C 611.93747 638.69792 611.9375 512.08333 611.9375 385.46875 C 427.28122 385.46875 242.625 385.46875 57.96875 385.46875 z "
       inkscape:radius="6.770586"
       sodipodi:type="inkscape:offset" />
    <text
       id="text1986"
       y="699.53296"
       x="490.55975"
       style="font-size:12px;font-style:normal;font-weight:normal;fill:black;fill-opacity:1;stroke:none;stroke-width:1pt;stroke-linecap:butt;stroke-linejoin:miter;stroke-opacity:1;font-family:Bitstream Vera Sans"
       xml:space="preserve"><tspan
         y="699.53296"
         x="490.55975"
         id="tspan1988"
         sodipodi:role="line">SSL-Factory</tspan></text>
  </g>
</svg>
